<?xml version="1.0" encoding="UTF-8" standalone="no"?>
<!-- Created with Inkscape (http://www.inkscape.org/) -->

<svg
   width="191.51527mm"
   height="43.295528mm"
   viewBox="0 0 191.51527 43.295528"
   version="1.1"
   id="svg1"
   inkscape:version="1.4.2 (f4327f4, 2025-05-13)"
   sodipodi:docname="Agility Robotics logo.svg"
   xmlns:inkscape="http://www.inkscape.org/namespaces/inkscape"
   xmlns:sodipodi="http://sodipodi.sourceforge.net/DTD/sodipodi-0.dtd"
   xmlns="http://www.w3.org/2000/svg"
   xmlns:svg="http://www.w3.org/2000/svg">
  <sodipodi:namedview
     id="namedview1"
     pagecolor="#ffffff"
     bordercolor="#000000"
     borderopacity="0.25"
     inkscape:showpageshadow="2"
     inkscape:pageopacity="0.0"
     inkscape:pagecheckerboard="0"
     inkscape:deskcolor="#d1d1d1"
     inkscape:document-units="mm"
     inkscape:zoom="1.0093364"
     inkscape:cx="266.01636"
     inkscape:cy="-14.365874"
     inkscape:window-width="1732"
     inkscape:window-height="907"
     inkscape:window-x="440"
     inkscape:window-y="381"
     inkscape:window-maximized="0"
     inkscape:current-layer="layer1" />
  <defs
     id="defs1" />
  <g
     inkscape:label="Layer 1"
     inkscape:groupmode="layer"
     id="layer1"
     transform="translate(-12.017486,-132.85946)">
    <path
       d="m 173.67938,133.54948 c 0.29603,1.2e-4 0.49445,0.14991 0.49508,0.49318 v 8.77855 h 11.1413 c 0.24816,7e-5 0.49508,0.15054 0.59333,0.39682 l 5.00125,14.64385 c 0.29478,0.8369 0.54358,1.72602 0.78991,2.86103 0.19842,-1.13501 0.49633,-2.02097 0.74324,-2.86103 l 4.75296,-14.64385 c 0.0982,-0.24628 0.34643,-0.39682 0.59334,-0.39682 h 5.29616 c 0.34516,0 0.54482,0.24691 0.39807,0.59082 l -12.13226,32.3474 c -0.0982,0.29478 -0.29479,0.39556 -0.54359,0.39556 h -5.44781 c -0.34328,-5.2e-4 -0.54169,-0.24628 -0.39682,-0.58893 l 3.46639,-8.87618 -7.32936,-18.54001 h -6.93336 v 10.84703 c 0,1.57649 0.99192,2.56292 2.47707,2.56323 h 2.92145 c 0.29666,0 0.49507,0.14929 0.49507,0.49318 v 4.34048 c 0,0.2954 -0.19841,0.49318 -0.49507,0.49318 h -4.95094 c -3.81094,-3.2e-4 -6.48672,-2.66307 -6.48704,-6.55873 v -12.18152 h -4.49995 c -0.2954,-6.3e-4 -0.49444,-0.1984 -0.49444,-0.49318 v -4.3404 c 0,-0.29478 0.19904,-0.49255 0.49444,-0.49318 h 4.50644 v -8.77693 c 3.1e-4,-0.29476 0.19904,-0.49255 0.49507,-0.49318 z m -59.4673,8.77691 c 4.25744,0 6.38821,1.72565 7.82475,4.2395 -0.14992,-0.83684 -0.19841,-1.47931 -0.19841,-2.36792 v -0.88861 c 0,-0.29478 0.2003,-0.49255 0.49633,-0.49318 h 5.04843 c 0.29667,0 0.49633,0.14928 0.49633,0.49318 v 24.35984 c -1.8e-4,4.88221 -3.56818,8.48075 -8.51993,8.48075 h -10.74436 c -0.25887,-5e-4 -0.4428,-0.11527 -0.485,-0.37415 l -0.0126,-0.114 v -4.34039 c 1.9e-4,-0.29478 0.19904,-0.49256 0.49508,-0.49319 h 9.45716 c 2.17927,0 3.76263,-1.67663 3.76263,-3.79512 v -1.72521 c 0,-1.08336 0.0504,-2.07011 0.20029,-3.00754 -1.43653,2.16995 -3.76331,3.99365 -7.52531,3.99379 -6.28712,-3.2e-4 -10.84538,-4.39041 -10.84538,-11.98456 0,-7.59372 5.24784,-11.98224 10.54759,-11.983 z m -25.601549,-8.77848 c 0.247533,0 0.445943,0.097 0.54357,0.39554 l 13.866099,32.34729 c 0.14927,0.3439 -0.0504,0.58955 -0.39871,0.58955 h -6.238117 c -0.246902,-3.2e-4 -0.445943,-0.0977 -0.54357,-0.39556 l -0.494445,-1.28083 c -1.831012,-5.0284 -5.350194,-7.98762 -10.200912,-7.98762 -4.850274,4.9e-4 -8.567234,2.95954 -10.300243,7.98762 l -0.445945,1.28083 c -0.09825,0.29478 -0.346426,0.39556 -0.593963,0.39556 v 0.003 h -5.844137 c -0.344537,-5e-4 -0.542944,-0.24628 -0.397445,-0.58892 l 13.867546,-32.35062 c 0.09762,-0.29477 0.29793,-0.39492 0.544832,-0.39555 z m 49.715539,9.2716 c 0.29666,0 0.49444,0.14928 0.49444,0.49318 v 23.0773 c 0,0.34392 -0.1984,0.49319 -0.49444,0.49319 h -5.04843 c -0.29603,-3.1e-4 -0.49633,-0.1984 -0.49633,-0.49319 v -23.0773 c 0,-0.3439 0.2003,-0.49254 0.49633,-0.49318 z m 10.94302,-9.26839 c 0.29604,6e-5 0.49445,0.14802 0.49508,0.49129 v 32.34734 c 0,0.29541 -0.19841,0.49318 -0.49508,0.49318 h -5.05006 c -0.29604,-5e-4 -0.49445,-0.19841 -0.49445,-0.49318 v -32.34734 c 3.2e-4,-0.29414 0.19904,-0.49066 0.49445,-0.49129 z m 10.94302,9.26839 c 0.29604,1.2e-4 0.49509,0.14928 0.49509,0.49318 v 23.0773 c 0,0.34392 -0.19842,0.49319 -0.49509,0.49319 h -5.05006 c -0.29604,-3.1e-4 -0.49445,-0.1984 -0.49445,-0.49319 v -23.0773 c 0,-0.3439 0.19841,-0.49254 0.49445,-0.49318 z m -141.077818,0 c 0.247537,0 0.447204,0.0504 0.593962,0.29478 l 8.4172,12.47599 c 2.277214,3.35435 4.160509,5.27638 8.96241,5.27638 h 6.387776 c 0.296665,0 0.495073,0.14928 0.495073,0.49318 v 5.02871 c -5.04e-4,0.29478 -0.198408,0.4932 -0.495073,0.4932 h -7.378806 c -7.427177,-2e-4 -10.398753,-3.30372 -13.369701,-7.69299 L 12.105189,143.41222 c -0.198408,-0.29541 -0.05039,-0.59081 0.345165,-0.59081 v -0.002 z m 96.908608,4.29159 c -3.56635,7.6e-4 -6.23799,3.00748 -6.23799,7.19828 0,4.19081 2.57382,7.19754 6.23799,7.19817 3.66481,0 6.14207,-3.00672 6.14207,-7.19817 -1.3e-4,-4.1913 -2.57508,-7.19828 -6.14207,-7.19828 z M 39.488879,133.55112 c 7.427556,6e-5 10.398628,3.30212 13.369639,7.6914 l 10.646731,15.77975 c 0.197778,0.29478 0.05039,0.58893 -0.346425,0.58893 l -0.0032,0.003 h -6.684125 c -0.247538,0 -0.445944,-0.0504 -0.592073,-0.29478 l -8.4189,-12.47763 c -2.276962,-3.35403 -4.160825,-5.27461 -8.962348,-5.27461 h -6.387775 c -0.296666,-6e-5 -0.495074,-0.19777 -0.495074,-0.49319 v -5.03211 c 3.79e-4,-0.29478 0.198408,-0.4913 0.495074,-0.4913 z m -1.68766,10.50034 c 3.46621,0 6.189305,2.71308 6.189305,6.16481 -5.04e-4,3.45134 -2.723472,6.16323 -6.189305,6.16323 -3.465705,-1.2e-4 -6.188799,-2.71189 -6.189304,-6.16323 0,-3.45159 2.723284,-6.16461 6.189304,-6.16481 z m 47.391605,-5.61958 c -0.445951,1.43024 -0.891574,2.61532 -1.435401,3.99378 l -3.863659,9.61659 h 10.498779 l -3.863525,-9.61659 c -0.544202,-1.43023 -0.941899,-2.56342 -1.336194,-3.99378 z m 50.609136,-5.57242 c 2.17914,1.2e-4 3.96114,1.77476 3.96114,3.94497 -1.8e-4,2.17008 -1.782,3.94484 -3.96114,3.94497 -2.17896,-4.5e-4 -3.96117,-1.77502 -3.96136,-3.94497 0,-2.17001 1.78222,-3.94452 3.96136,-3.94497 z m 21.88434,0 c 2.17932,0 3.96115,1.77464 3.96115,3.94497 0,2.17013 -1.78183,3.94497 -3.96115,3.94497 -2.17865,-7.5e-4 -3.9611,-1.77521 -3.96129,-3.94497 0,-2.16988 1.78252,-3.94427 3.96129,-3.94497 z"
       fill="currentColor"
       id="path1"
       style="stroke-width:1.66652" />
  </g>
</svg>
