<?xml version="1.0" encoding="UTF-8"?>
<!-- Generator: Adobe Illustrator 25.3.1, SVG Export Plug-In . SVG Version: 6.00 Build 0)  -->
<svg version="1.1" id="Calque_1" xmlns="http://www.w3.org/2000/svg" xmlns:xlink="http://www.w3.org/1999/xlink" x="0px" y="0px" viewBox="0 0 1280 233.5" style="enable-background:new 0 0 1280 233.5;" xml:space="preserve">
<g>
	<polygon points="208.7,137.3 189,77.8 175.7,77.8 155.5,137 136.2,77.8 121.2,77.8 147,155.7 162.4,155.7 182,98.1 201.2,155.7    216.6,155.7 242.4,77.8 228.6,77.8  "/>
	<polygon points="288,77.8 252.9,155.7 267.8,155.7 275.5,137.6 280.4,126.3 295,92.3 309.6,126.3 314.4,137.6 322.2,155.7    337.3,155.7 302.2,77.8  "/>
	<polygon points="414.3,130.5 371.3,77.8 359.4,77.8 359.4,155.7 373.8,155.7 373.8,103 416.7,155.7 428.6,155.7 428.6,77.8    414.3,77.8  "/>
	<path d="M519.5,82.7c-6.4-3.2-13.8-4.8-22.1-4.8h-34v77.8h34c8.3,0,15.7-1.6,22.1-4.8c6.4-3.2,11.5-7.8,15-13.7s5.3-12.7,5.3-20.4   c0-7.7-1.8-14.5-5.3-20.4C531,90.4,526,85.9,519.5,82.7z M521.8,130.8c-2.3,4-5.7,7.2-10,9.3c-4.3,2.2-9.4,3.3-15.1,3.3h-18.9V90.1   h18.9c5.7,0,10.7,1.1,15.1,3.3c4.3,2.2,7.7,5.3,10,9.3c2.3,4,3.5,8.7,3.5,14.1S524.2,126.8,521.8,130.8z"/>
	<polygon points="581.9,124.3 619.5,124.3 619.5,112.4 581.9,112.4 581.9,89.9 624.3,89.9 624.3,77.8 567.5,77.8 567.5,155.7    625.8,155.7 625.8,143.5 581.9,143.5  "/>
	<path d="M720.8,101.1c0-12.8-11.4-23.3-25.5-23.3h-22.2v0h-13.4v77.8h13.4v-31.2h18.3l15.5,31.2h13.9l-15.9-33   C714.3,119.2,720.8,110.8,720.8,101.1z M695.3,112.4h-22.2V89.8h22.2c7.4,0,13.5,5.1,13.5,11.3   C708.8,107.3,702.8,112.4,695.3,112.4z"/>
	<path d="M768.9,88.7c5-2.8,10.6-4.2,16.8-4.2c9.3,0,16.9,3.1,23,9.2l5.2-5.2c-3.4-3.7-7.6-6.5-12.5-8.4c-4.9-1.9-10.2-2.9-16-2.9   c-7.7,0-14.7,1.7-20.9,5.1c-6.2,3.4-11.1,8.1-14.6,14.2c-3.5,6-5.3,12.8-5.3,20.3c0,7.5,1.8,14.3,5.3,20.3   c3.5,6,8.4,10.8,14.6,14.2c6.2,3.4,13.1,5.1,20.8,5.1c5.8,0,11.1-1,16.1-2.9c4.9-2,9.1-4.8,12.5-8.5l-5.2-5.2   c-6,6.2-13.7,9.3-23,9.3c-6.2,0-11.7-1.4-16.8-4.2c-5-2.8-9-6.7-11.8-11.6c-2.9-4.9-4.3-10.4-4.3-16.5c0-6.1,1.4-11.6,4.3-16.5   C759.9,95.4,763.9,91.5,768.9,88.7z"/>
	<polygon points="1025,155.7 1033.2,155.7 1033.2,122.6 1073.4,122.6 1073.4,115.5 1033.2,115.5 1033.2,84.9 1078.3,84.9    1078.3,77.8 1025,77.8  "/>
	<polygon points="1095.9,77.8 1095.9,84.9 1123.2,84.9 1123.2,155.7 1131.5,155.7 1131.5,84.9 1158.8,84.9 1158.8,77.8  "/>
	<polygon points="956.1,77.8 920.6,155.7 929.1,155.7 938.5,134.9 941.5,128.2 960.1,86.4 978.8,128.2 981.8,134.9 991.2,155.7    999.8,155.7 964.3,77.8  "/>
	<path d="M900.8,100.4c0-12.4-10.8-22.5-24-22.5h-28.2v0h-8.3v77.8h0.1v-0.1h8.3v-32.7h24.7l16.7,32.7h8.8l-17-33.2   C892.6,120.2,900.8,111.2,900.8,100.4z M876.8,115.6h-28.2V85.2h28.2c9.2,0,16.6,6.8,16.6,15.2S886,115.6,876.8,115.6z"/>
</g>
</svg>